<?xml version="1.0" encoding="UTF-8"?>
<svg xmlns="http://www.w3.org/2000/svg" viewBox="0 0 1680 1440" width="1680" height="1440" role="img" aria-labelledby="sa-title sa-desc" font-family="Inter, system-ui, -apple-system, sans-serif">
  <title id="sa-title">AgentOS System Architecture</title>
  <desc id="sa-desc">Seven-layer architecture: API Surface, Cognitive Substrate (GMI), Memory + RAG (4-tier memory, 8 cognitive mechanisms, HyDE, GraphRAG, 7 vector backends), Tools and Capabilities, Guardrails and HITL, Orchestration, and I/O and Providers.</desc>

  <defs>
    <linearGradient id="sa-brand" x1="0%" y1="0%" x2="100%" y2="0%">
      <stop offset="0%" stop-color="#6366f1" />
      <stop offset="50%" stop-color="#8b5cf6" />
      <stop offset="100%" stop-color="#ec4899" />
    </linearGradient>

    <linearGradient id="sa-flow" x1="0%" y1="0%" x2="0%" y2="100%">
      <stop offset="0%" stop-color="#ec4899" stop-opacity="0.9" />
      <stop offset="20%" stop-color="#a78bfa" stop-opacity="0.9" />
      <stop offset="40%" stop-color="#06b6d4" stop-opacity="0.9" />
      <stop offset="58%" stop-color="#10b981" stop-opacity="0.9" />
      <stop offset="74%" stop-color="#f43f5e" stop-opacity="0.9" />
      <stop offset="88%" stop-color="#f59e0b" stop-opacity="0.9" />
      <stop offset="100%" stop-color="#8b5cf6" stop-opacity="0.9" />
    </linearGradient>

    <linearGradient id="sa-edge-1" x1="0%" y1="0%" x2="100%" y2="0%"><stop offset="0%" stop-color="#ec4899" stop-opacity="1" /><stop offset="100%" stop-color="#ec4899" stop-opacity="0.2" /></linearGradient>
    <linearGradient id="sa-edge-2" x1="0%" y1="0%" x2="100%" y2="0%"><stop offset="0%" stop-color="#a78bfa" stop-opacity="1" /><stop offset="100%" stop-color="#a78bfa" stop-opacity="0.2" /></linearGradient>
    <linearGradient id="sa-edge-3" x1="0%" y1="0%" x2="100%" y2="0%"><stop offset="0%" stop-color="#06b6d4" stop-opacity="1" /><stop offset="100%" stop-color="#06b6d4" stop-opacity="0.2" /></linearGradient>
    <linearGradient id="sa-edge-4" x1="0%" y1="0%" x2="100%" y2="0%"><stop offset="0%" stop-color="#10b981" stop-opacity="1" /><stop offset="100%" stop-color="#10b981" stop-opacity="0.2" /></linearGradient>
    <linearGradient id="sa-edge-5" x1="0%" y1="0%" x2="100%" y2="0%"><stop offset="0%" stop-color="#f43f5e" stop-opacity="1" /><stop offset="100%" stop-color="#f43f5e" stop-opacity="0.2" /></linearGradient>
    <linearGradient id="sa-edge-6" x1="0%" y1="0%" x2="100%" y2="0%"><stop offset="0%" stop-color="#f59e0b" stop-opacity="1" /><stop offset="100%" stop-color="#f59e0b" stop-opacity="0.2" /></linearGradient>
    <linearGradient id="sa-edge-7" x1="0%" y1="0%" x2="100%" y2="0%"><stop offset="0%" stop-color="#8b5cf6" stop-opacity="1" /><stop offset="100%" stop-color="#8b5cf6" stop-opacity="0.2" /></linearGradient>

    <radialGradient id="sa-orb-1" cx="50%" cy="50%" r="50%"><stop offset="0%" stop-color="#6366f1" stop-opacity="0.35" /><stop offset="100%" stop-color="#6366f1" stop-opacity="0" /></radialGradient>
    <radialGradient id="sa-orb-2" cx="50%" cy="50%" r="50%"><stop offset="0%" stop-color="#ec4899" stop-opacity="0.2" /><stop offset="100%" stop-color="#ec4899" stop-opacity="0" /></radialGradient>

    <pattern id="sa-dots" x="0" y="0" width="40" height="40" patternUnits="userSpaceOnUse">
      <circle cx="20" cy="20" r="0.9" fill="rgba(99,102,241,0.18)" />
    </pattern>

    <filter id="sa-disc-glow" x="-50%" y="-50%" width="200%" height="200%">
      <feGaussianBlur stdDeviation="3" result="b" />
      <feMerge><feMergeNode in="b" /><feMergeNode in="SourceGraphic" /></feMerge>
    </filter>
    <filter id="sa-ribbon-glow" x="-50%" y="-50%" width="200%" height="200%">
      <feGaussianBlur stdDeviation="5" />
    </filter>

    <marker id="sa-arrow" viewBox="0 0 10 10" refX="9" refY="5" markerWidth="8" markerHeight="8" orient="auto">
      <path d="M 0 0 L 10 5 L 0 10 z" fill="#a78bfa" />
    </marker>

    <style><![CDATA[
      .bg { fill: #0f172a; }
      .h1   { font: 700 32px Inter, system-ui, sans-serif; fill: #f5f3ff; letter-spacing: -0.015em; }
      .h2   { font: 500 16px Inter, system-ui, sans-serif; fill: #c7d2fe; }
      .card { fill: rgba(30, 41, 59, 0.78); stroke: rgba(165, 180, 252, 0.28); stroke-width: 1.2; }
      .num         { font: 800 22px Inter, system-ui, sans-serif; fill: #ffffff; }
      .layer-title { font: 700 22px Inter, system-ui, sans-serif; fill: #f1f5f9; letter-spacing: -0.01em; }
      .layer-sub   { font: 500 13px Inter, system-ui, sans-serif; fill: #f1f5f9; }
      .lbl         { font: 700 10.5px Inter, system-ui, sans-serif; fill: #e2e8f0; letter-spacing: 0.14em; text-transform: uppercase; }
      .lbl-row     { font: 700 11px Inter, system-ui, sans-serif; fill: #e2e8f0; letter-spacing: 0.12em; text-transform: uppercase; }
      .pill        { fill: rgba(99, 102, 241, 0.18); stroke: rgba(165, 180, 252, 0.48); stroke-width: 1; }
      .pill-text   { font: 500 13px 'JetBrains Mono', ui-monospace, monospace; fill: #e2e8f0; }
      .pill-emph   { fill: rgba(139, 92, 246, 0.3); stroke: rgba(196, 181, 253, 0.7); stroke-width: 1; }
      .pill-emph-t { font: 600 13px 'JetBrains Mono', ui-monospace, monospace; fill: #d8b4fe; }
      .disc-1 { fill: #ec4899; } .disc-2 { fill: #a78bfa; } .disc-3 { fill: #06b6d4; }
      .disc-4 { fill: #10b981; } .disc-5 { fill: #f43f5e; } .disc-6 { fill: #f59e0b; }
      .disc-7 { fill: #8b5cf6; }
      .layer-conn { stroke: rgba(165, 180, 252, 0.6); }

            [data-theme='dark'] .h1          { fill: #f5f3ff; }
      [data-theme='dark'] .h2          { fill: #c7d2fe; }
      [data-theme='dark'] .card        { fill: rgba(15, 23, 42, 0.65); stroke: rgba(165, 180, 252, 0.22); }
      [data-theme='dark'] .layer-title { fill: #f1f5f9; }
      [data-theme='dark'] .layer-sub   { fill: #cbd5e1; }
      [data-theme='dark'] .lbl         { fill: #94a3b8; }
      [data-theme='dark'] .lbl-row     { fill: #94a3b8; }
      [data-theme='dark'] .pill        { fill: rgba(99, 102, 241, 0.18); stroke: rgba(165, 180, 252, 0.48); }
      [data-theme='dark'] .pill-text   { fill: #e2e8f0; }
      [data-theme='dark'] .pill-emph   { fill: rgba(139, 92, 246, 0.3); stroke: rgba(196, 181, 253, 0.7); }
      [data-theme='dark'] .pill-emph-t { fill: #d8b4fe; }
      [data-theme='dark'] .layer-conn  { stroke: rgba(165, 180, 252, 0.6); }
    ]]></style>
  </defs>

  <rect class="bg" x="0" y="0" width="1680" height="1440"/>

  <!-- Ambient background -->
  <rect x="0" y="0" width="1680" height="1440" fill="url(#sa-dots)" />
  <circle cx="220" cy="240" r="400" fill="url(#sa-orb-1)" />
  <circle cx="1480" cy="1140" r="420" fill="url(#sa-orb-2)" />

  <!-- Title -->
  <text x="60" y="62" class="h1">AgentOS · System architecture</text>
  <text x="60" y="92" class="h2">Seven cooperating layers · API at the top · providers at the floor · cognition + memory + safety in the middle</text>
  <line x1="60" y1="114" x2="1620" y2="114" stroke="url(#sa-brand)" stroke-width="2.5" />

  <!-- Right-edge flow ribbon -->
  <path d="M 1636 160 Q 1672 720 1636 1390" stroke="url(#sa-flow)" stroke-width="3" fill="none" filter="url(#sa-ribbon-glow)" />
  <path d="M 1636 160 Q 1672 720 1636 1390" stroke="url(#sa-flow)" stroke-width="1.8" fill="none" />

  <!--
    Layer y-coordinates (recomputed for breathing room):
      L1:  y=150,  h=140  →  end=290
      L2:  y=304,  h=140  →  end=444   (14px gap, arrow at y=290..304)
      L3:  y=458,  h=290  →  end=748   (Memory + RAG, 3 sub-rows with 56px row spacing)
      L4:  y=762,  h=140  →  end=902
      L5:  y=916,  h=140  →  end=1056
      L6:  y=1070, h=140  →  end=1210
      L7:  y=1224, h=140  →  end=1364
    Bottom padding: 16px (viewBox 1380).
  -->

  <!-- ════════ LAYER 1 · API surface ════════ -->
  <g transform="translate(60, 150)">
    <rect width="1560" height="156" rx="18" class="card" />
    <rect width="9" height="156" rx="4" fill="#ec4899" />
    <rect x="9" width="240" height="156" fill="url(#sa-edge-1)" />
    <circle cx="52" cy="70" r="24" class="disc-1" filter="url(#sa-disc-glow)" />
    <text x="52" y="77" text-anchor="middle" class="num">1</text>
    <text x="92" y="48" class="layer-title">API surface</text>
    <text x="92" y="74" class="layer-sub">High-level helpers · one-shot calls · stateful agents</text>
    <text x="92" y="108" class="lbl">Caller-facing</text>

    <g transform="translate(500, 26)">
      <g><rect width="140" height="34" rx="10" class="pill-emph" /><text x="70" y="22" text-anchor="middle" class="pill-emph-t">generateText()</text></g>
      <g transform="translate(152, 0)"><rect width="130" height="34" rx="10" class="pill-emph" /><text x="65" y="22" text-anchor="middle" class="pill-emph-t">streamText()</text></g>
      <g transform="translate(294, 0)"><rect width="160" height="34" rx="10" class="pill-emph" /><text x="80" y="22" text-anchor="middle" class="pill-emph-t">generateObject()</text></g>
      <g transform="translate(466, 0)"><rect width="160" height="34" rx="10" class="pill-emph" /><text x="80" y="22" text-anchor="middle" class="pill-emph-t">generateImage()</text></g>
      <g transform="translate(638, 0)"><rect width="92" height="34" rx="10" class="pill-emph" /><text x="46" y="22" text-anchor="middle" class="pill-emph-t">agent()</text></g>
      <g transform="translate(742, 0)"><rect width="104" height="34" rx="10" class="pill-emph" /><text x="52" y="22" text-anchor="middle" class="pill-emph-t">agency()</text></g>
      <g transform="translate(858, 0)"><rect width="110" height="34" rx="10" class="pill-emph" /><text x="55" y="22" text-anchor="middle" class="pill-emph-t">mission()</text></g>
    </g>
    <g transform="translate(500, 76)">
      <g><rect width="240" height="34" rx="10" class="pill" /><text x="120" y="22" text-anchor="middle" class="pill-text">prompt assembly · sessions</text></g>
      <g transform="translate(252, 0)"><rect width="250" height="34" rx="10" class="pill" /><text x="125" y="22" text-anchor="middle" class="pill-text">hooks · personality shaping</text></g>
      <g transform="translate(514, 0)"><rect width="230" height="34" rx="10" class="pill" /><text x="115" y="22" text-anchor="middle" class="pill-text">usage ledger forwarding</text></g>
    </g>
  </g>

  <!-- ════════ LAYER 2 · Cognitive substrate ════════ -->
  <g transform="translate(60, 304)">
    <rect width="1560" height="156" rx="18" class="card" />
    <rect width="9" height="156" rx="4" fill="#a78bfa" />
    <rect x="9" width="240" height="156" fill="url(#sa-edge-2)" />
    <circle cx="52" cy="70" r="24" class="disc-2" filter="url(#sa-disc-glow)" />
    <text x="52" y="77" text-anchor="middle" class="num">2</text>
    <text x="92" y="48" class="layer-title">Cognitive substrate (GMI)</text>
    <text x="92" y="74" class="layer-sub">Per-agent coordinator · persona, mood, state, reasoning trace</text>
    <text x="92" y="108" class="lbl">Per-agent state</text>

    <g transform="translate(500, 26)">
      <g><rect width="200" height="34" rx="10" class="pill-emph" /><text x="100" y="22" text-anchor="middle" class="pill-emph-t">GMI coordinator</text></g>
      <g transform="translate(212, 0)"><rect width="240" height="34" rx="10" class="pill-emph" /><text x="120" y="22" text-anchor="middle" class="pill-emph-t">PersonaOverlayManager</text></g>
      <g transform="translate(464, 0)"><rect width="200" height="34" rx="10" class="pill-emph" /><text x="100" y="22" text-anchor="middle" class="pill-emph-t">SentimentTracker</text></g>
      <g transform="translate(676, 0)"><rect width="220" height="34" rx="10" class="pill-emph" /><text x="110" y="22" text-anchor="middle" class="pill-emph-t">MetapromptExecutor</text></g>
    </g>
    <g transform="translate(500, 76)">
      <g><rect width="240" height="34" rx="10" class="pill" /><text x="120" y="22" text-anchor="middle" class="pill-text">HEXACO 6-trait shaping</text></g>
      <g transform="translate(252, 0)"><rect width="270" height="34" rx="10" class="pill" /><text x="135" y="22" text-anchor="middle" class="pill-text">3-trigger metaprompt loop</text></g>
      <g transform="translate(534, 0)"><rect width="240" height="34" rx="10" class="pill" /><text x="120" y="22" text-anchor="middle" class="pill-text">reasoning trace buffer</text></g>
    </g>
  </g>

  <!-- ════════ LAYER 3 · Memory + RAG (h=290, three sub-rows with 56px row pitch) ════════ -->
  <g transform="translate(60, 458)">
    <rect width="1560" height="380" rx="18" class="card" />
    <rect width="9" height="380" rx="4" fill="#06b6d4" />
    <rect x="9" width="240" height="380" fill="url(#sa-edge-3)" />
    <circle cx="52" cy="70" r="24" class="disc-3" filter="url(#sa-disc-glow)" />
    <text x="52" y="77" text-anchor="middle" class="num">3</text>
    <text x="92" y="48" class="layer-title">Memory + RAG pipeline</text>
    <text x="92" y="74" class="layer-sub">4-tier memory · HyDE + GraphRAG · 70.2% LongMemEval-M</text>
    <text x="92" y="108" class="lbl">Cognitive memory</text>

    <!-- Sub-row A: Memory tiers (y center ≈ 152) -->
    <text x="92" y="170" class="lbl-row">Memory tiers</text>
    <g transform="translate(280, 152)">
      <g><rect width="130" height="34" rx="10" class="pill-emph" /><text x="65" y="22" text-anchor="middle" class="pill-emph-t">working</text></g>
      <g transform="translate(142, 0)"><rect width="130" height="34" rx="10" class="pill-emph" /><text x="65" y="22" text-anchor="middle" class="pill-emph-t">episodic</text></g>
      <g transform="translate(284, 0)"><rect width="130" height="34" rx="10" class="pill-emph" /><text x="65" y="22" text-anchor="middle" class="pill-emph-t">semantic</text></g>
      <g transform="translate(426, 0)"><rect width="170" height="34" rx="10" class="pill-emph" /><text x="85" y="22" text-anchor="middle" class="pill-emph-t">observational</text></g>
      <g transform="translate(608, 0)"><rect width="260" height="34" rx="10" class="pill-emph" /><text x="130" y="22" text-anchor="middle" class="pill-emph-t">8 cognitive mechanisms</text></g>
    </g>

    <!-- Sub-row B: Retrieval (y center ≈ 208) -->
    <text x="92" y="242" class="lbl-row">Retrieval</text>
    <g transform="translate(280, 224)">
      <g><rect width="140" height="34" rx="10" class="pill" /><text x="70" y="22" text-anchor="middle" class="pill-text">Ebbinghaus</text></g>
      <g transform="translate(152, 0)"><rect width="170" height="34" rx="10" class="pill" /><text x="85" y="22" text-anchor="middle" class="pill-text">reconsolidation</text></g>
      <g transform="translate(334, 0)"><rect width="130" height="34" rx="10" class="pill" /><text x="65" y="22" text-anchor="middle" class="pill-text">RIF · FOK</text></g>
      <g transform="translate(476, 0)"><rect width="110" height="34" rx="10" class="pill" /><text x="55" y="22" text-anchor="middle" class="pill-text">HyDE</text></g>
      <g transform="translate(598, 0)"><rect width="130" height="34" rx="10" class="pill" /><text x="65" y="22" text-anchor="middle" class="pill-text">GraphRAG</text></g>
      <g transform="translate(740, 0)"><rect width="100" height="34" rx="10" class="pill" /><text x="50" y="22" text-anchor="middle" class="pill-text">rerank</text></g>
    </g>

    <!-- Sub-row C: Vector backends (y center ≈ 264) -->
    <text x="92" y="314" class="lbl-row">Vector backends</text>
    <g transform="translate(280, 296)">
      <g><rect width="110" height="34" rx="10" class="pill" /><text x="55" y="22" text-anchor="middle" class="pill-text">SQLite</text></g>
      <g transform="translate(122, 0)"><rect width="110" height="34" rx="10" class="pill" /><text x="55" y="22" text-anchor="middle" class="pill-text">HNSW</text></g>
      <g transform="translate(244, 0)"><rect width="120" height="34" rx="10" class="pill" /><text x="60" y="22" text-anchor="middle" class="pill-text">Postgres</text></g>
      <g transform="translate(376, 0)"><rect width="110" height="34" rx="10" class="pill" /><text x="55" y="22" text-anchor="middle" class="pill-text">Qdrant</text></g>
      <g transform="translate(498, 0)"><rect width="120" height="34" rx="10" class="pill" /><text x="60" y="22" text-anchor="middle" class="pill-text">Pinecone</text></g>
      <g transform="translate(630, 0)"><rect width="110" height="34" rx="10" class="pill" /><text x="55" y="22" text-anchor="middle" class="pill-text">Neo4j</text></g>
      <g transform="translate(752, 0)"><rect width="120" height="34" rx="10" class="pill" /><text x="60" y="22" text-anchor="middle" class="pill-text">Supabase</text></g>
    </g>
  </g>

  <!-- ════════ LAYER 4 · Tools, skills, extensions ════════ -->
  <g transform="translate(60, 822)">
    <rect width="1560" height="156" rx="18" class="card" />
    <rect width="9" height="156" rx="4" fill="#10b981" />
    <rect x="9" width="240" height="156" fill="url(#sa-edge-4)" />
    <circle cx="52" cy="70" r="24" class="disc-4" filter="url(#sa-disc-glow)" />
    <text x="52" y="77" text-anchor="middle" class="num">4</text>
    <text x="92" y="48" class="layer-title">Tools, skills, extensions</text>
    <text x="92" y="74" class="layer-sub">100+ packs · 88 SKILL.md · judge-gated runtime forging</text>
    <text x="92" y="108" class="lbl">Capability surface</text>

    <g transform="translate(500, 26)">
      <g><rect width="200" height="34" rx="10" class="pill-emph" /><text x="100" y="22" text-anchor="middle" class="pill-emph-t">ToolOrchestrator</text></g>
      <g transform="translate(212, 0)"><rect width="200" height="34" rx="10" class="pill-emph" /><text x="100" y="22" text-anchor="middle" class="pill-emph-t">ExtensionRegistry</text></g>
      <g transform="translate(424, 0)"><rect width="170" height="34" rx="10" class="pill-emph" /><text x="85" y="22" text-anchor="middle" class="pill-emph-t">SkillRegistry</text></g>
      <g transform="translate(606, 0)"><rect width="220" height="34" rx="10" class="pill-emph" /><text x="110" y="22" text-anchor="middle" class="pill-emph-t">CapabilityDiscovery</text></g>
      <g transform="translate(838, 0)"><rect width="200" height="34" rx="10" class="pill-emph" /><text x="100" y="22" text-anchor="middle" class="pill-emph-t">ForgeToolMetaTool</text></g>
    </g>
    <g transform="translate(500, 76)">
      <g><rect width="220" height="34" rx="10" class="pill" /><text x="110" y="22" text-anchor="middle" class="pill-text">100+ extension packs</text></g>
      <g transform="translate(232, 0)"><rect width="220" height="34" rx="10" class="pill" /><text x="110" y="22" text-anchor="middle" class="pill-text">88 curated SKILL.md</text></g>
      <g transform="translate(464, 0)"><rect width="260" height="34" rx="10" class="pill" /><text x="130" y="22" text-anchor="middle" class="pill-text">3-tier semantic discovery</text></g>
      <g transform="translate(736, 0)"><rect width="230" height="34" rx="10" class="pill" /><text x="115" y="22" text-anchor="middle" class="pill-text">node:vm sandbox forge</text></g>
    </g>
  </g>

  <!-- ════════ LAYER 5 · Guardrails + HITL ════════ -->
  <g transform="translate(60, 976)">
    <rect width="1560" height="156" rx="18" class="card" />
    <rect width="9" height="156" rx="4" fill="#f43f5e" />
    <rect x="9" width="240" height="156" fill="url(#sa-edge-5)" />
    <circle cx="52" cy="70" r="24" class="disc-5" filter="url(#sa-disc-glow)" />
    <text x="52" y="77" text-anchor="middle" class="num">5</text>
    <text x="92" y="48" class="layer-title">Guardrails + HITL</text>
    <text x="92" y="74" class="layer-sub">PII · ML classifiers · NLI grounding · 5 approval triggers</text>
    <text x="92" y="108" class="lbl">Safety + approval</text>

    <g transform="translate(500, 26)">
      <g><rect width="220" height="34" rx="10" class="pill-emph" /><text x="110" y="22" text-anchor="middle" class="pill-emph-t">GuardrailDispatcher</text></g>
      <g transform="translate(232, 0)"><rect width="170" height="34" rx="10" class="pill-emph" /><text x="85" y="22" text-anchor="middle" class="pill-emph-t">PII redaction</text></g>
      <g transform="translate(414, 0)"><rect width="180" height="34" rx="10" class="pill-emph" /><text x="90" y="22" text-anchor="middle" class="pill-emph-t">ML classifiers</text></g>
      <g transform="translate(606, 0)"><rect width="200" height="34" rx="10" class="pill-emph" /><text x="100" y="22" text-anchor="middle" class="pill-emph-t">Grounding Guard</text></g>
      <g transform="translate(818, 0)"><rect width="180" height="34" rx="10" class="pill-emph" /><text x="90" y="22" text-anchor="middle" class="pill-emph-t">HumanInteract</text></g>
    </g>
    <g transform="translate(500, 76)">
      <g><rect width="240" height="34" rx="10" class="pill" /><text x="120" y="22" text-anchor="middle" class="pill-text">regex · NER · LLM judge</text></g>
      <g transform="translate(252, 0)"><rect width="260" height="34" rx="10" class="pill" /><text x="130" y="22" text-anchor="middle" class="pill-text">toxicity · prompt-injection</text></g>
      <g transform="translate(524, 0)"><rect width="220" height="34" rx="10" class="pill" /><text x="110" y="22" text-anchor="middle" class="pill-text">NLI hallucination</text></g>
      <g transform="translate(756, 0)"><rect width="280" height="34" rx="10" class="pill" /><text x="140" y="22" text-anchor="middle" class="pill-text">cli · webhook · slack · judge</text></g>
    </g>
  </g>

  <!-- ════════ LAYER 6 · Orchestration ════════ -->
  <g transform="translate(60, 1130)">
    <rect width="1560" height="156" rx="18" class="card" />
    <rect width="9" height="156" rx="4" fill="#f59e0b" />
    <rect x="9" width="240" height="156" fill="url(#sa-edge-6)" />
    <circle cx="52" cy="70" r="24" class="disc-6" filter="url(#sa-disc-glow)" />
    <text x="52" y="77" text-anchor="middle" class="num">6</text>
    <text x="92" y="48" class="layer-title">Orchestration</text>
    <text x="92" y="74" class="layer-sub">3 authoring APIs → 1 IR · graph runtime · checkpoint</text>
    <text x="92" y="108" class="lbl">Multi-agent flow</text>

    <g transform="translate(500, 26)">
      <g><rect width="150" height="34" rx="10" class="pill-emph" /><text x="75" y="22" text-anchor="middle" class="pill-emph-t">workflow()</text></g>
      <g transform="translate(162, 0)"><rect width="140" height="34" rx="10" class="pill-emph" /><text x="70" y="22" text-anchor="middle" class="pill-emph-t">mission()</text></g>
      <g transform="translate(314, 0)"><rect width="170" height="34" rx="10" class="pill-emph" /><text x="85" y="22" text-anchor="middle" class="pill-emph-t">AgentGraph</text></g>
      <g transform="translate(496, 0)"><rect width="250" height="34" rx="10" class="pill-emph" /><text x="125" y="22" text-anchor="middle" class="pill-emph-t">CompiledExecutionGraph</text></g>
      <g transform="translate(758, 0)"><rect width="200" height="34" rx="10" class="pill-emph" /><text x="100" y="22" text-anchor="middle" class="pill-emph-t">CheckpointStore</text></g>
    </g>
    <g transform="translate(500, 76)">
      <g><rect width="310" height="34" rx="10" class="pill" /><text x="155" y="22" text-anchor="middle" class="pill-text">6 strategies · parallel · debate · …</text></g>
      <g transform="translate(322, 0)"><rect width="260" height="34" rx="10" class="pill" /><text x="130" y="22" text-anchor="middle" class="pill-text">Tree-of-Thought planner</text></g>
      <g transform="translate(594, 0)"><rect width="280" height="34" rx="10" class="pill" /><text x="140" y="22" text-anchor="middle" class="pill-text">resume + time-travel debug</text></g>
    </g>
  </g>

  <!-- ════════ LAYER 7 · I/O + providers ════════ -->
  <g transform="translate(60, 1284)">
    <rect width="1560" height="156" rx="18" class="card" />
    <rect width="9" height="156" rx="4" fill="#8b5cf6" />
    <rect x="9" width="240" height="156" fill="url(#sa-edge-7)" />
    <circle cx="52" cy="70" r="24" class="disc-7" filter="url(#sa-disc-glow)" />
    <text x="52" y="77" text-anchor="middle" class="num">7</text>
    <text x="92" y="48" class="layer-title">I/O + providers</text>
    <text x="92" y="74" class="layer-sub">Voice · channels · media · 13 LLM providers</text>
    <text x="92" y="108" class="lbl">External surface</text>

    <g transform="translate(500, 26)">
      <g><rect width="200" height="34" rx="10" class="pill-emph" /><text x="100" y="22" text-anchor="middle" class="pill-emph-t">Voice (STT · TTS)</text></g>
      <g transform="translate(212, 0)"><rect width="150" height="34" rx="10" class="pill-emph" /><text x="75" y="22" text-anchor="middle" class="pill-emph-t">Channels</text></g>
      <g transform="translate(374, 0)"><rect width="270" height="34" rx="10" class="pill-emph" /><text x="135" y="22" text-anchor="middle" class="pill-emph-t">Media (img · video · music)</text></g>
      <g transform="translate(656, 0)"><rect width="200" height="34" rx="10" class="pill-emph" /><text x="100" y="22" text-anchor="middle" class="pill-emph-t">13 LLM providers</text></g>
      <g transform="translate(868, 0)"><rect width="200" height="34" rx="10" class="pill-emph" /><text x="100" y="22" text-anchor="middle" class="pill-emph-t">OpenRouter fanout</text></g>
    </g>
    <g transform="translate(500, 76)">
      <g><rect width="310" height="34" rx="10" class="pill" /><text x="155" y="22" text-anchor="middle" class="pill-text">VAD · barge-in · endpoint detection</text></g>
      <g transform="translate(322, 0)"><rect width="310" height="34" rx="10" class="pill" /><text x="155" y="22" text-anchor="middle" class="pill-text">Discord · Slack · Telegram · Twilio</text></g>
      <g transform="translate(644, 0)"><rect width="320" height="34" rx="10" class="pill" /><text x="160" y="22" text-anchor="middle" class="pill-text">Stability · Runway · Suno · ElevenLabs</text></g>
    </g>
  </g>

  <!-- Inter-layer arrow connectors -->
  <path d="M 840 290 L 840 304" class="layer-conn" marker-end="url(#sa-arrow)" />
  <path d="M 840 444 L 840 458" class="layer-conn" marker-end="url(#sa-arrow)" />
  <path d="M 840 808 L 840 822" class="layer-conn" marker-end="url(#sa-arrow)" />
  <path d="M 840 962 L 840 976" class="layer-conn" marker-end="url(#sa-arrow)" />
  <path d="M 840 1116 L 840 1130" class="layer-conn" marker-end="url(#sa-arrow)" />
  <path d="M 840 1270 L 840 1284" class="layer-conn" marker-end="url(#sa-arrow)" />
</svg>
